<svg width="26" height="26" viewBox="0 0 26 26" fill="none" xmlns="http://www.w3.org/2000/svg">
<path d="M13 0.548584C6.04297 0.548584 0.40625 6.23608 0.40625 13.1423C0.40625 20.0994 6.04297 25.7361 13 25.7361C19.9062 25.7361 25.5938 20.0994 25.5938 13.1423C25.5938 6.23608 19.9062 0.548584 13 0.548584ZM13 2.98608C18.5859 2.98608 23.1562 7.5564 23.1562 13.1423C23.1562 18.7791 18.5859 23.2986 13 23.2986C7.36328 23.2986 2.84375 18.7791 2.84375 13.1423C2.84375 7.5564 7.36328 2.98608 13 2.98608ZM20.1094 9.63843L18.9414 8.47046C18.7383 8.21655 18.332 8.21655 18.0781 8.47046L10.918 15.5798L7.87109 12.533C7.61719 12.2791 7.26172 12.2791 7.00781 12.533L5.83984 13.6501C5.63672 13.9041 5.63672 14.3103 5.83984 14.5134L10.4609 19.1853C10.7148 19.4392 11.0703 19.4392 11.3242 19.1853L20.1094 10.5017C20.3125 10.2478 20.3125 9.84155 20.1094 9.63843Z" fill="white"/>
</svg>
